# xmcd CD database file
#
# Track frame offsets:
#	150
#	17945
#	31342
#	45537
#	57622
#	70850
#	81947
#	93212
#	115525
#	134465
#	150635
#	169055
#	187507
#	200480
#	219422
#	236100
#	250465
#	262472
#	278277
#
# Disc length: 3896 seconds
#
# Revision: 0
# Processed by: cddbd v1.4PL0 Copyright (c) Steve Scherf et al.
# Submitted via: CDex 1.50beta9
#
DISCID=0a0f3613
DTITLE=Various Artist - Cajun music: the essential collection
DYEAR=2003
DGENRE=Blues
TTITLE0=La jalouserie (Jealousy) - Bruce Daigrepont
TTITLE1=Evangline special - Jo-El Sonnier
TTITLE2=Les conseils j'ai ecoute (The advice I took) - Eddie Lejeune
TTITLE3=La femme que j'aimais oubliee (The woman I never forgot - Charivari
TTITLE4=Elle savait pas j'etais marie (She didn't know I was married) - D.L. Menard
TTITLE5=La porte d'en arriere (The back door) - Jimmy C. Newman and Cajun Country
TTITLE6=Opelousas sostan - Mamou
TTITLE7=Au bout d echemin (At the end of the road) - The Bluerunners
TTITLE8=Pine grove blues - Jo-El Sonnier
TTITLE9=Madame Bozo - BeauSoleil
TTITLE10=Dans la Louisiana (In Louisiana) - Al Berard and the Basin Brothers
TTITLE11=Grand Mamou - Coteau
TTITLE12=La fleur de la jeunesse - The Magnolia Sisters
TTITLE13=Les barres de la prison (The prisons bars) - Courtney Granger
TTITLE14=J'ai vu la loup, le renard et la belette (I saw the wolf, the fox and the weasel) - Balfa Toujours
TTITLE15=Jolie blon (Pretty blond) - Zachary Richard
TTITLE16=J'menui de toi (I'm lonesome for you) - Danny Collet
TTITLE17=Tes parents veulent plus me voir (Your parents don't want to see me) - Steve Riley and the mamou Playboys
TTITLE18=Valse de Opelousas - Geno Delafose
EXTD=YEAR: 2003
EXTT0=
EXTT1=
EXTT2=
EXTT3=
EXTT4=
EXTT5=
EXTT6=
EXTT7=
EXTT8=
EXTT9=
EXTT10=
EXTT11=
EXTT12=
EXTT13=
EXTT14=
EXTT15=
EXTT16=
EXTT17=
EXTT18=
PLAYORDER=
